<mxfile host="app.diagrams.net" modified="2024-06-07T12:53:23.067Z" agent="Mozilla/5.0 (Windows NT 10.0; Win64; x64) AppleWebKit/537.36 (KHTML, like Gecko) Chrome/125.0.0.0 Safari/537.36" version="24.4.10" etag="lq1b9OLF53-Gxihqrvbq" type="github">
  <diagram name="PÃ¡gina-1" id="pmS37FegWkZ4OjzUuT7X">
    <mxGraphModel>
      <root>
        <mxCell id="0" />
        <mxCell id="1" parent="0" />
      </root>
    </mxGraphModel>
  </diagram>
</mxfile>
